<mxfile host="app.diagrams.net" agent="Mozilla/5.0 (Windows NT 10.0; Win64; x64) AppleWebKit/537.36 (KHTML, like Gecko) Chrome/128.0.0.0 Safari/537.36" version="24.7.13">
  <diagram id="R2lEEEUBdFMjLlhIrx00" name="Page-1">
    <mxGraphModel dx="1434" dy="738" grid="1" gridSize="10" guides="1" tooltips="1" connect="1" arrows="1" fold="1" page="1" pageScale="1" pageWidth="850" pageHeight="1100" background="none" math="0" shadow="1" extFonts="Permanent Marker^https://fonts.googleapis.com/css?family=Permanent+Marker">
      <root>
        <mxCell id="0" />
        <mxCell id="1" parent="0" />
        <mxCell id="OrGfQXAaAdTn9BZJPWIu-47" value="Type" style="ellipse;whiteSpace=wrap;html=1;align=center;rounded=1;" parent="1" vertex="1">
          <mxGeometry x="295" y="584.5" width="50" height="40" as="geometry" />
        </mxCell>
        <mxCell id="OrGfQXAaAdTn9BZJPWIu-48" value="&lt;span style=&quot;font-size: 18px;&quot;&gt;User&lt;br&gt;(Customer)&lt;/span&gt;" style="whiteSpace=wrap;html=1;align=center;rounded=1;" parent="1" vertex="1">
          <mxGeometry x="1102" y="505.5" width="117" height="75" as="geometry" />
        </mxCell>
        <mxCell id="OrGfQXAaAdTn9BZJPWIu-49" value="&lt;font style=&quot;font-size: 18px;&quot;&gt;Movie Participants&lt;/font&gt;" style="whiteSpace=wrap;html=1;align=center;rounded=1;" parent="1" vertex="1">
          <mxGeometry x="668.5" y="724" width="130" height="50" as="geometry" />
        </mxCell>
        <mxCell id="OrGfQXAaAdTn9BZJPWIu-50" value="&lt;u&gt;ID&lt;/u&gt;" style="ellipse;whiteSpace=wrap;html=1;align=center;rounded=1;" parent="1" vertex="1">
          <mxGeometry x="1080" y="452.5" width="50" height="40" as="geometry" />
        </mxCell>
        <mxCell id="OrGfQXAaAdTn9BZJPWIu-52" value="" style="endArrow=none;html=1;rounded=1;exitX=1;exitY=1;exitDx=0;exitDy=0;" parent="1" source="OrGfQXAaAdTn9BZJPWIu-50" target="OrGfQXAaAdTn9BZJPWIu-48" edge="1">
          <mxGeometry relative="1" as="geometry">
            <mxPoint x="887.5" y="492.5" as="sourcePoint" />
            <mxPoint x="1047.5" y="492.5" as="targetPoint" />
          </mxGeometry>
        </mxCell>
        <mxCell id="OrGfQXAaAdTn9BZJPWIu-53" value="&lt;u&gt;E-mail&lt;/u&gt;" style="ellipse;whiteSpace=wrap;html=1;align=center;rounded=1;" parent="1" vertex="1">
          <mxGeometry x="1142" y="442.5" width="50" height="40" as="geometry" />
        </mxCell>
        <mxCell id="OrGfQXAaAdTn9BZJPWIu-54" value="" style="endArrow=none;html=1;rounded=1;exitX=0.5;exitY=1;exitDx=0;exitDy=0;entryX=0.5;entryY=0;entryDx=0;entryDy=0;" parent="1" source="OrGfQXAaAdTn9BZJPWIu-53" target="OrGfQXAaAdTn9BZJPWIu-48" edge="1">
          <mxGeometry relative="1" as="geometry">
            <mxPoint x="1130.5" y="436.5" as="sourcePoint" />
            <mxPoint x="1187.5" y="452.5" as="targetPoint" />
          </mxGeometry>
        </mxCell>
        <mxCell id="OrGfQXAaAdTn9BZJPWIu-55" value="Password" style="ellipse;whiteSpace=wrap;html=1;align=center;rounded=1;" parent="1" vertex="1">
          <mxGeometry x="1199.5" y="452.5" width="75" height="40" as="geometry" />
        </mxCell>
        <mxCell id="OrGfQXAaAdTn9BZJPWIu-56" value="" style="endArrow=none;html=1;rounded=1;exitX=0;exitY=1;exitDx=0;exitDy=0;entryX=0.75;entryY=0;entryDx=0;entryDy=0;" parent="1" source="OrGfQXAaAdTn9BZJPWIu-55" target="OrGfQXAaAdTn9BZJPWIu-48" edge="1">
          <mxGeometry relative="1" as="geometry">
            <mxPoint x="1160.5" y="386.5" as="sourcePoint" />
            <mxPoint x="1197.5" y="462.5" as="targetPoint" />
          </mxGeometry>
        </mxCell>
        <mxCell id="OrGfQXAaAdTn9BZJPWIu-57" value="Gender" style="ellipse;whiteSpace=wrap;html=1;align=center;rounded=1;" parent="1" vertex="1">
          <mxGeometry x="1252" y="492.5" width="50" height="40" as="geometry" />
        </mxCell>
        <mxCell id="OrGfQXAaAdTn9BZJPWIu-58" value="" style="endArrow=none;html=1;rounded=1;exitX=0;exitY=0.5;exitDx=0;exitDy=0;entryX=1;entryY=0.25;entryDx=0;entryDy=0;" parent="1" source="OrGfQXAaAdTn9BZJPWIu-57" target="OrGfQXAaAdTn9BZJPWIu-48" edge="1">
          <mxGeometry relative="1" as="geometry">
            <mxPoint x="1160.5" y="386.5" as="sourcePoint" />
            <mxPoint x="1197.5" y="462.5" as="targetPoint" />
          </mxGeometry>
        </mxCell>
        <mxCell id="OrGfQXAaAdTn9BZJPWIu-61" value="Phone Number" style="ellipse;whiteSpace=wrap;html=1;align=center;rounded=1;" parent="1" vertex="1">
          <mxGeometry x="1242" y="542.5" width="70" height="50" as="geometry" />
        </mxCell>
        <mxCell id="OrGfQXAaAdTn9BZJPWIu-62" value="" style="endArrow=none;html=1;rounded=1;entryX=1;entryY=0.75;entryDx=0;entryDy=0;exitX=0;exitY=0.5;exitDx=0;exitDy=0;" parent="1" source="OrGfQXAaAdTn9BZJPWIu-61" target="OrGfQXAaAdTn9BZJPWIu-48" edge="1">
          <mxGeometry relative="1" as="geometry">
            <mxPoint x="1345" y="452.5" as="sourcePoint" />
            <mxPoint x="1197.5" y="462.5" as="targetPoint" />
          </mxGeometry>
        </mxCell>
        <mxCell id="OrGfQXAaAdTn9BZJPWIu-63" value="Name" style="ellipse;whiteSpace=wrap;html=1;align=center;rounded=1;" parent="1" vertex="1">
          <mxGeometry x="265" y="469.5" width="50" height="40" as="geometry" />
        </mxCell>
        <mxCell id="OrGfQXAaAdTn9BZJPWIu-64" value="Running-Time" style="ellipse;whiteSpace=wrap;html=1;align=center;rounded=1;" parent="1" vertex="1">
          <mxGeometry x="368.5" y="592.5" width="90" height="40" as="geometry" />
        </mxCell>
        <mxCell id="OrGfQXAaAdTn9BZJPWIu-65" value="Released" style="ellipse;whiteSpace=wrap;html=1;align=center;rounded=1;" parent="1" vertex="1">
          <mxGeometry x="330" y="336" width="66.5" height="53" as="geometry" />
        </mxCell>
        <mxCell id="OrGfQXAaAdTn9BZJPWIu-66" value="18+" style="ellipse;whiteSpace=wrap;html=1;align=center;rounded=1;" parent="1" vertex="1">
          <mxGeometry x="290" y="421.5" width="50" height="40" as="geometry" />
        </mxCell>
        <mxCell id="OrGfQXAaAdTn9BZJPWIu-74" value="&lt;font style=&quot;font-size: 24px;&quot;&gt;Movie&lt;/font&gt;" style="whiteSpace=wrap;html=1;align=center;rounded=1;" parent="1" vertex="1">
          <mxGeometry x="348.5" y="469.5" width="130" height="100.5" as="geometry" />
        </mxCell>
        <mxCell id="OrGfQXAaAdTn9BZJPWIu-76" value="&lt;font style=&quot;font-size: 18px;&quot;&gt;Prefer&lt;/font&gt;" style="shape=rhombus;perimeter=rhombusPerimeter;whiteSpace=wrap;html=1;align=center;rounded=1;" parent="1" vertex="1">
          <mxGeometry x="937.25" y="595" width="100" height="50" as="geometry" />
        </mxCell>
        <mxCell id="OrGfQXAaAdTn9BZJPWIu-77" value="&lt;font style=&quot;font-size: 18px;&quot;&gt;User_Comment&lt;/font&gt;" style="whiteSpace=wrap;html=1;align=center;rounded=1;" parent="1" vertex="1">
          <mxGeometry x="677" y="512.5" width="150" height="40" as="geometry" />
        </mxCell>
        <mxCell id="OrGfQXAaAdTn9BZJPWIu-78" value="Rating" style="ellipse;whiteSpace=wrap;html=1;align=center;rounded=1;" parent="1" vertex="1">
          <mxGeometry x="710" y="560" width="47" height="40" as="geometry" />
        </mxCell>
        <mxCell id="OrGfQXAaAdTn9BZJPWIu-79" value="&lt;u&gt;ID&lt;/u&gt;" style="ellipse;whiteSpace=wrap;html=1;align=center;rounded=1;" parent="1" vertex="1">
          <mxGeometry x="650" y="560" width="50" height="40" as="geometry" />
        </mxCell>
        <mxCell id="OrGfQXAaAdTn9BZJPWIu-80" value="&lt;u&gt;Movie&lt;br&gt;Code&lt;/u&gt;" style="ellipse;whiteSpace=wrap;html=1;align=center;rounded=1;" parent="1" vertex="1">
          <mxGeometry x="260" y="527.5" width="60" height="50" as="geometry" />
        </mxCell>
        <mxCell id="OrGfQXAaAdTn9BZJPWIu-81" value="" style="endArrow=none;html=1;rounded=1;exitX=0;exitY=0.75;exitDx=0;exitDy=0;entryX=1;entryY=0.5;entryDx=0;entryDy=0;" parent="1" source="OrGfQXAaAdTn9BZJPWIu-74" target="OrGfQXAaAdTn9BZJPWIu-80" edge="1">
          <mxGeometry relative="1" as="geometry">
            <mxPoint x="627.5" y="483.5" as="sourcePoint" />
            <mxPoint x="702.5" y="483.5" as="targetPoint" />
          </mxGeometry>
        </mxCell>
        <mxCell id="OrGfQXAaAdTn9BZJPWIu-83" value="" style="endArrow=none;html=1;rounded=1;entryX=1;entryY=0.5;entryDx=0;entryDy=0;exitX=0;exitY=0.25;exitDx=0;exitDy=0;" parent="1" source="OrGfQXAaAdTn9BZJPWIu-74" target="OrGfQXAaAdTn9BZJPWIu-63" edge="1">
          <mxGeometry relative="1" as="geometry">
            <mxPoint x="326.5" y="500.5" as="sourcePoint" />
            <mxPoint x="260.5" y="462.5" as="targetPoint" />
          </mxGeometry>
        </mxCell>
        <mxCell id="OrGfQXAaAdTn9BZJPWIu-84" value="" style="endArrow=none;html=1;rounded=1;entryX=1;entryY=0;entryDx=0;entryDy=0;exitX=0.25;exitY=1;exitDx=0;exitDy=0;" parent="1" source="OrGfQXAaAdTn9BZJPWIu-74" target="OrGfQXAaAdTn9BZJPWIu-47" edge="1">
          <mxGeometry relative="1" as="geometry">
            <mxPoint x="365.5" y="548.5" as="sourcePoint" />
            <mxPoint x="280.5" y="412.5" as="targetPoint" />
          </mxGeometry>
        </mxCell>
        <mxCell id="OrGfQXAaAdTn9BZJPWIu-85" value="" style="endArrow=none;html=1;rounded=1;entryX=0.5;entryY=0;entryDx=0;entryDy=0;exitX=0.5;exitY=1;exitDx=0;exitDy=0;" parent="1" source="OrGfQXAaAdTn9BZJPWIu-74" target="OrGfQXAaAdTn9BZJPWIu-64" edge="1">
          <mxGeometry relative="1" as="geometry">
            <mxPoint x="372.5" y="458.5" as="sourcePoint" />
            <mxPoint x="320.5" y="372.5" as="targetPoint" />
          </mxGeometry>
        </mxCell>
        <mxCell id="OrGfQXAaAdTn9BZJPWIu-86" value="" style="endArrow=none;html=1;rounded=1;exitX=0;exitY=0;exitDx=0;exitDy=0;" parent="1" source="1Lhtd_r-0-Z76O6dxkwj-27" target="OrGfQXAaAdTn9BZJPWIu-65" edge="1">
          <mxGeometry relative="1" as="geometry">
            <mxPoint x="389" y="370" as="sourcePoint" />
            <mxPoint x="387" y="381" as="targetPoint" />
          </mxGeometry>
        </mxCell>
        <mxCell id="OrGfQXAaAdTn9BZJPWIu-87" value="" style="endArrow=none;html=1;rounded=1;entryX=1;entryY=1;entryDx=0;entryDy=0;exitX=0.25;exitY=0;exitDx=0;exitDy=0;" parent="1" source="OrGfQXAaAdTn9BZJPWIu-74" target="OrGfQXAaAdTn9BZJPWIu-66" edge="1">
          <mxGeometry relative="1" as="geometry">
            <mxPoint x="372.5" y="458.5" as="sourcePoint" />
            <mxPoint x="424.5" y="357.5" as="targetPoint" />
          </mxGeometry>
        </mxCell>
        <mxCell id="OrGfQXAaAdTn9BZJPWIu-88" value="Date" style="ellipse;whiteSpace=wrap;html=1;align=center;rounded=1;" parent="1" vertex="1">
          <mxGeometry x="729.5" y="464.13" width="45" height="40" as="geometry" />
        </mxCell>
        <mxCell id="OrGfQXAaAdTn9BZJPWIu-89" value="Comment" style="ellipse;whiteSpace=wrap;html=1;align=center;rounded=1;" parent="1" vertex="1">
          <mxGeometry x="785" y="464.13" width="65" height="40" as="geometry" />
        </mxCell>
        <mxCell id="OrGfQXAaAdTn9BZJPWIu-97" value="" style="endArrow=none;html=1;rounded=1;entryX=1;entryY=0;entryDx=0;entryDy=0;exitX=0.213;exitY=1.013;exitDx=0;exitDy=0;exitPerimeter=0;" parent="1" source="OrGfQXAaAdTn9BZJPWIu-77" target="OrGfQXAaAdTn9BZJPWIu-79" edge="1">
          <mxGeometry relative="1" as="geometry">
            <mxPoint x="765" y="760" as="sourcePoint" />
            <mxPoint x="752" y="650" as="targetPoint" />
          </mxGeometry>
        </mxCell>
        <mxCell id="OrGfQXAaAdTn9BZJPWIu-98" value="" style="endArrow=none;html=1;rounded=1;exitX=0.5;exitY=1;exitDx=0;exitDy=0;" parent="1" source="OrGfQXAaAdTn9BZJPWIu-77" target="OrGfQXAaAdTn9BZJPWIu-78" edge="1">
          <mxGeometry relative="1" as="geometry">
            <mxPoint x="775" y="770" as="sourcePoint" />
            <mxPoint x="679" y="582.5" as="targetPoint" />
          </mxGeometry>
        </mxCell>
        <mxCell id="OrGfQXAaAdTn9BZJPWIu-99" value="" style="endArrow=none;html=1;rounded=1;exitX=0.5;exitY=0;exitDx=0;exitDy=0;entryX=0.5;entryY=1;entryDx=0;entryDy=0;" parent="1" source="OrGfQXAaAdTn9BZJPWIu-77" target="OrGfQXAaAdTn9BZJPWIu-88" edge="1">
          <mxGeometry relative="1" as="geometry">
            <mxPoint x="785" y="780" as="sourcePoint" />
            <mxPoint x="752" y="496.5" as="targetPoint" />
          </mxGeometry>
        </mxCell>
        <mxCell id="OrGfQXAaAdTn9BZJPWIu-100" value="" style="endArrow=none;html=1;rounded=1;exitX=0.75;exitY=0;exitDx=0;exitDy=0;entryX=0.315;entryY=0.975;entryDx=0;entryDy=0;entryPerimeter=0;" parent="1" source="OrGfQXAaAdTn9BZJPWIu-77" target="OrGfQXAaAdTn9BZJPWIu-89" edge="1">
          <mxGeometry relative="1" as="geometry">
            <mxPoint x="795" y="790" as="sourcePoint" />
            <mxPoint x="782" y="680" as="targetPoint" />
          </mxGeometry>
        </mxCell>
        <mxCell id="OrGfQXAaAdTn9BZJPWIu-105" value="&lt;font style=&quot;font-size: 18px;&quot;&gt;Write&lt;/font&gt;" style="shape=rhombus;perimeter=rhombusPerimeter;whiteSpace=wrap;html=1;align=center;rounded=1;" parent="1" vertex="1">
          <mxGeometry x="902" y="520.5" width="105.5" height="45" as="geometry" />
        </mxCell>
        <mxCell id="_kRaysnc5MU2M_8_n5-s-9" value="&lt;span style=&quot;font-size: 18px;&quot;&gt;About&lt;/span&gt;" style="shape=rhombus;perimeter=rhombusPerimeter;whiteSpace=wrap;html=1;align=center;rounded=1;" parent="1" vertex="1">
          <mxGeometry x="540" y="506.56" width="97.5" height="51.88" as="geometry" />
        </mxCell>
        <mxCell id="_kRaysnc5MU2M_8_n5-s-20" value="" style="edgeStyle=entityRelationEdgeStyle;fontSize=12;html=1;endArrow=ERone;endFill=1;rounded=1;entryX=0;entryY=0.75;entryDx=0;entryDy=0;exitX=1;exitY=0.5;exitDx=0;exitDy=0;" parent="1" source="OrGfQXAaAdTn9BZJPWIu-76" target="OrGfQXAaAdTn9BZJPWIu-48" edge="1">
          <mxGeometry width="100" height="100" relative="1" as="geometry">
            <mxPoint x="658" y="636" as="sourcePoint" />
            <mxPoint x="758" y="536" as="targetPoint" />
          </mxGeometry>
        </mxCell>
        <mxCell id="_kRaysnc5MU2M_8_n5-s-26" value="" style="edgeStyle=entityRelationEdgeStyle;fontSize=12;html=1;endArrow=ERoneToMany;rounded=1;entryX=0;entryY=0.5;entryDx=0;entryDy=0;exitX=1;exitY=1;exitDx=0;exitDy=0;" parent="1" source="_kRaysnc5MU2M_8_n5-s-62" target="OrGfQXAaAdTn9BZJPWIu-49" edge="1">
          <mxGeometry width="100" height="100" relative="1" as="geometry">
            <mxPoint x="647" y="743" as="sourcePoint" />
            <mxPoint x="967" y="810" as="targetPoint" />
            <Array as="points">
              <mxPoint x="600" y="760" />
            </Array>
          </mxGeometry>
        </mxCell>
        <mxCell id="_kRaysnc5MU2M_8_n5-s-29" value="" style="edgeStyle=entityRelationEdgeStyle;fontSize=12;html=1;endArrow=ERzeroToOne;endFill=1;rounded=1;entryX=0;entryY=0.5;entryDx=0;entryDy=0;exitX=1;exitY=0.5;exitDx=0;exitDy=0;" parent="1" source="OrGfQXAaAdTn9BZJPWIu-105" target="OrGfQXAaAdTn9BZJPWIu-48" edge="1">
          <mxGeometry width="100" height="100" relative="1" as="geometry">
            <mxPoint x="1090.5" y="431" as="sourcePoint" />
            <mxPoint x="893.5" y="556" as="targetPoint" />
          </mxGeometry>
        </mxCell>
        <mxCell id="_kRaysnc5MU2M_8_n5-s-33" value="" style="edgeStyle=entityRelationEdgeStyle;fontSize=12;html=1;endArrow=ERzeroToMany;endFill=1;rounded=1;exitX=0;exitY=0.5;exitDx=0;exitDy=0;" parent="1" source="OrGfQXAaAdTn9BZJPWIu-76" target="_kRaysnc5MU2M_8_n5-s-52" edge="1">
          <mxGeometry width="100" height="100" relative="1" as="geometry">
            <mxPoint x="650" y="710" as="sourcePoint" />
            <mxPoint x="750" y="610" as="targetPoint" />
          </mxGeometry>
        </mxCell>
        <mxCell id="_kRaysnc5MU2M_8_n5-s-34" value="" style="edgeStyle=entityRelationEdgeStyle;fontSize=12;html=1;endArrow=ERmandOne;rounded=1;entryX=1;entryY=0.75;entryDx=0;entryDy=0;" parent="1" source="OrGfQXAaAdTn9BZJPWIu-105" target="OrGfQXAaAdTn9BZJPWIu-77" edge="1">
          <mxGeometry width="100" height="100" relative="1" as="geometry">
            <mxPoint x="795.5" y="640" as="sourcePoint" />
            <mxPoint x="895.5" y="540" as="targetPoint" />
          </mxGeometry>
        </mxCell>
        <mxCell id="_kRaysnc5MU2M_8_n5-s-37" value="" style="edgeStyle=entityRelationEdgeStyle;fontSize=12;html=1;endArrow=ERmandOne;rounded=1;entryX=1.012;entryY=0.633;entryDx=0;entryDy=0;exitX=0;exitY=0.5;exitDx=0;exitDy=0;entryPerimeter=0;" parent="1" source="_kRaysnc5MU2M_8_n5-s-9" target="OrGfQXAaAdTn9BZJPWIu-74" edge="1">
          <mxGeometry width="100" height="100" relative="1" as="geometry">
            <mxPoint x="603.5" y="533.125" as="sourcePoint" />
            <mxPoint x="530" y="533" as="targetPoint" />
            <Array as="points">
              <mxPoint x="581.5" y="562.5" />
            </Array>
          </mxGeometry>
        </mxCell>
        <mxCell id="_kRaysnc5MU2M_8_n5-s-38" value="" style="edgeStyle=entityRelationEdgeStyle;fontSize=12;html=1;endArrow=ERmandOne;rounded=1;entryX=0;entryY=0.5;entryDx=0;entryDy=0;exitX=1;exitY=0.5;exitDx=0;exitDy=0;" parent="1" source="_kRaysnc5MU2M_8_n5-s-9" target="OrGfQXAaAdTn9BZJPWIu-77" edge="1">
          <mxGeometry width="100" height="100" relative="1" as="geometry">
            <mxPoint x="657.75" y="556.005" as="sourcePoint" />
            <mxPoint x="726.25" y="556.13" as="targetPoint" />
            <Array as="points">
              <mxPoint x="598.25" y="596.13" />
            </Array>
          </mxGeometry>
        </mxCell>
        <mxCell id="_kRaysnc5MU2M_8_n5-s-39" value="Name" style="ellipse;whiteSpace=wrap;html=1;align=center;rounded=1;" parent="1" vertex="1">
          <mxGeometry x="660" y="801.5" width="50" height="40" as="geometry" />
        </mxCell>
        <mxCell id="_kRaysnc5MU2M_8_n5-s-40" value="Occupation" style="ellipse;whiteSpace=wrap;html=1;align=center;rounded=1;" parent="1" vertex="1">
          <mxGeometry x="810" y="729" width="92" height="40" as="geometry" />
        </mxCell>
        <mxCell id="_kRaysnc5MU2M_8_n5-s-42" value="Representative&lt;br&gt;Work" style="ellipse;whiteSpace=wrap;html=1;align=center;rounded=1;" parent="1" vertex="1">
          <mxGeometry x="717.25" y="796" width="110" height="51" as="geometry" />
        </mxCell>
        <mxCell id="_kRaysnc5MU2M_8_n5-s-44" value="&lt;u&gt;Resident number&lt;/u&gt;" style="ellipse;whiteSpace=wrap;html=1;align=center;rounded=1;" parent="1" vertex="1">
          <mxGeometry x="678.5" y="675" width="110" height="40" as="geometry" />
        </mxCell>
        <mxCell id="_kRaysnc5MU2M_8_n5-s-45" value="" style="endArrow=none;html=1;rounded=1;entryX=0.5;entryY=0;entryDx=0;entryDy=0;exitX=0.75;exitY=1;exitDx=0;exitDy=0;" parent="1" source="OrGfQXAaAdTn9BZJPWIu-49" target="_kRaysnc5MU2M_8_n5-s-42" edge="1">
          <mxGeometry relative="1" as="geometry">
            <mxPoint x="217" y="799" as="sourcePoint" />
            <mxPoint x="225" y="838" as="targetPoint" />
          </mxGeometry>
        </mxCell>
        <mxCell id="_kRaysnc5MU2M_8_n5-s-46" value="" style="endArrow=none;html=1;rounded=1;entryX=0;entryY=0.5;entryDx=0;entryDy=0;exitX=1;exitY=0.5;exitDx=0;exitDy=0;" parent="1" source="OrGfQXAaAdTn9BZJPWIu-49" target="_kRaysnc5MU2M_8_n5-s-40" edge="1">
          <mxGeometry relative="1" as="geometry">
            <mxPoint x="712" y="801" as="sourcePoint" />
            <mxPoint x="717" y="820" as="targetPoint" />
          </mxGeometry>
        </mxCell>
        <mxCell id="_kRaysnc5MU2M_8_n5-s-47" value="" style="endArrow=none;html=1;rounded=1;entryX=0.5;entryY=1;entryDx=0;entryDy=0;exitX=0.5;exitY=0;exitDx=0;exitDy=0;" parent="1" source="OrGfQXAaAdTn9BZJPWIu-49" target="_kRaysnc5MU2M_8_n5-s-44" edge="1">
          <mxGeometry relative="1" as="geometry">
            <mxPoint x="722" y="811" as="sourcePoint" />
            <mxPoint x="727" y="830" as="targetPoint" />
          </mxGeometry>
        </mxCell>
        <mxCell id="_kRaysnc5MU2M_8_n5-s-48" value="" style="endArrow=none;html=1;rounded=1;exitX=0.25;exitY=1;exitDx=0;exitDy=0;entryX=0.5;entryY=0;entryDx=0;entryDy=0;" parent="1" source="OrGfQXAaAdTn9BZJPWIu-49" target="_kRaysnc5MU2M_8_n5-s-39" edge="1">
          <mxGeometry relative="1" as="geometry">
            <mxPoint x="732" y="821" as="sourcePoint" />
            <mxPoint x="771" y="705" as="targetPoint" />
          </mxGeometry>
        </mxCell>
        <mxCell id="_kRaysnc5MU2M_8_n5-s-50" value="End" style="ellipse;whiteSpace=wrap;html=1;align=center;rounded=1;" parent="1" vertex="1">
          <mxGeometry x="440" y="340.5" width="66.5" height="53" as="geometry" />
        </mxCell>
        <mxCell id="_kRaysnc5MU2M_8_n5-s-51" value="" style="endArrow=none;html=1;rounded=1;entryX=0;entryY=1;entryDx=0;entryDy=0;exitX=1;exitY=0;exitDx=0;exitDy=0;" parent="1" source="1Lhtd_r-0-Z76O6dxkwj-27" target="_kRaysnc5MU2M_8_n5-s-50" edge="1">
          <mxGeometry relative="1" as="geometry">
            <mxPoint x="439" y="360" as="sourcePoint" />
            <mxPoint x="412.5" y="607.5" as="targetPoint" />
          </mxGeometry>
        </mxCell>
        <mxCell id="_kRaysnc5MU2M_8_n5-s-52" value="&lt;font style=&quot;font-size: 18px;&quot;&gt;Genre&lt;/font&gt;" style="whiteSpace=wrap;html=1;align=center;rounded=1;" parent="1" vertex="1">
          <mxGeometry x="780.5" y="600" width="113" height="40" as="geometry" />
        </mxCell>
        <mxCell id="_kRaysnc5MU2M_8_n5-s-54" value="&lt;font style=&quot;font-size: 18px;&quot;&gt;History&lt;/font&gt;" style="whiteSpace=wrap;html=1;align=center;rounded=1;" parent="1" vertex="1">
          <mxGeometry x="728.25" y="358.63" width="100" height="44" as="geometry" />
        </mxCell>
        <mxCell id="_kRaysnc5MU2M_8_n5-s-56" value="&lt;font style=&quot;font-size: 18px;&quot;&gt;Watch&lt;/font&gt;" style="shape=rhombus;perimeter=rhombusPerimeter;whiteSpace=wrap;html=1;align=center;rounded=1;" parent="1" vertex="1">
          <mxGeometry x="877.75" y="397.13" width="107.5" height="67" as="geometry" />
        </mxCell>
        <mxCell id="_kRaysnc5MU2M_8_n5-s-60" value="&lt;u&gt;Name&lt;/u&gt;" style="ellipse;whiteSpace=wrap;html=1;align=center;rounded=1;" parent="1" vertex="1">
          <mxGeometry x="823.25" y="662" width="50" height="40" as="geometry" />
        </mxCell>
        <mxCell id="_kRaysnc5MU2M_8_n5-s-62" value="&lt;font style=&quot;font-size: 18px;&quot;&gt;has&lt;/font&gt;" style="shape=rhombus;perimeter=rhombusPerimeter;whiteSpace=wrap;html=1;align=center;rounded=1;" parent="1" vertex="1">
          <mxGeometry x="540" y="606" width="90" height="56" as="geometry" />
        </mxCell>
        <mxCell id="_kRaysnc5MU2M_8_n5-s-63" value="" style="edgeStyle=entityRelationEdgeStyle;fontSize=12;html=1;endArrow=ERmandOne;rounded=1;exitX=0;exitY=0.5;exitDx=0;exitDy=0;entryX=1.012;entryY=0.878;entryDx=0;entryDy=0;entryPerimeter=0;" parent="1" source="_kRaysnc5MU2M_8_n5-s-62" target="OrGfQXAaAdTn9BZJPWIu-74" edge="1">
          <mxGeometry width="100" height="100" relative="1" as="geometry">
            <mxPoint x="690" y="595" as="sourcePoint" />
            <mxPoint x="650" y="690" as="targetPoint" />
            <Array as="points">
              <mxPoint x="520" y="760" />
            </Array>
          </mxGeometry>
        </mxCell>
        <mxCell id="_kRaysnc5MU2M_8_n5-s-64" value="" style="endArrow=none;html=1;rounded=1;entryX=0.5;entryY=1;entryDx=0;entryDy=0;exitX=0.5;exitY=0;exitDx=0;exitDy=0;" parent="1" source="_kRaysnc5MU2M_8_n5-s-60" target="_kRaysnc5MU2M_8_n5-s-52" edge="1">
          <mxGeometry relative="1" as="geometry">
            <mxPoint x="862" y="570" as="sourcePoint" />
            <mxPoint x="838" y="625.5" as="targetPoint" />
          </mxGeometry>
        </mxCell>
        <mxCell id="_kRaysnc5MU2M_8_n5-s-71" value="Date" style="ellipse;whiteSpace=wrap;html=1;align=center;rounded=1;" parent="1" vertex="1">
          <mxGeometry x="689.75" y="309.63" width="50" height="40" as="geometry" />
        </mxCell>
        <mxCell id="_kRaysnc5MU2M_8_n5-s-72" value="" style="endArrow=none;html=1;rounded=1;entryX=0.25;entryY=0;entryDx=0;entryDy=0;exitX=1;exitY=1;exitDx=0;exitDy=0;" parent="1" source="_kRaysnc5MU2M_8_n5-s-71" target="_kRaysnc5MU2M_8_n5-s-54" edge="1">
          <mxGeometry relative="1" as="geometry">
            <mxPoint x="725.75" y="420.13" as="sourcePoint" />
            <mxPoint x="1053.25" y="676.13" as="targetPoint" />
          </mxGeometry>
        </mxCell>
        <mxCell id="_kRaysnc5MU2M_8_n5-s-74" value="Watch" style="ellipse;whiteSpace=wrap;html=1;align=center;rounded=1;" parent="1" vertex="1">
          <mxGeometry x="720.75" y="250.87" width="50" height="40" as="geometry" />
        </mxCell>
        <mxCell id="_kRaysnc5MU2M_8_n5-s-75" value="Play" style="ellipse;whiteSpace=wrap;html=1;align=center;rounded=1;" parent="1" vertex="1">
          <mxGeometry x="839.75" y="250.87" width="53.75" height="40" as="geometry" />
        </mxCell>
        <mxCell id="_kRaysnc5MU2M_8_n5-s-76" value="" style="endArrow=none;html=1;rounded=1;entryX=0;entryY=0;entryDx=0;entryDy=0;exitX=1;exitY=1;exitDx=0;exitDy=0;" parent="1" source="_kRaysnc5MU2M_8_n5-s-74" target="1Lhtd_r-0-Z76O6dxkwj-29" edge="1">
          <mxGeometry relative="1" as="geometry">
            <mxPoint x="764" y="465" as="sourcePoint" />
            <mxPoint x="781" y="489" as="targetPoint" />
          </mxGeometry>
        </mxCell>
        <mxCell id="_kRaysnc5MU2M_8_n5-s-77" value="" style="endArrow=none;html=1;rounded=1;entryX=1;entryY=0;entryDx=0;entryDy=0;exitX=0;exitY=1;exitDx=0;exitDy=0;" parent="1" source="_kRaysnc5MU2M_8_n5-s-75" target="1Lhtd_r-0-Z76O6dxkwj-29" edge="1">
          <mxGeometry relative="1" as="geometry">
            <mxPoint x="774" y="475" as="sourcePoint" />
            <mxPoint x="791" y="499" as="targetPoint" />
          </mxGeometry>
        </mxCell>
        <mxCell id="_kRaysnc5MU2M_8_n5-s-78" value="" style="endArrow=none;html=1;rounded=1;entryX=0;entryY=0.25;entryDx=0;entryDy=0;exitX=1;exitY=0.5;exitDx=0;exitDy=0;" parent="1" source="_kRaysnc5MU2M_8_n5-s-79" target="_kRaysnc5MU2M_8_n5-s-54" edge="1">
          <mxGeometry relative="1" as="geometry">
            <mxPoint x="665.75" y="460.13" as="sourcePoint" />
            <mxPoint x="739.75" y="458.13" as="targetPoint" />
          </mxGeometry>
        </mxCell>
        <mxCell id="_kRaysnc5MU2M_8_n5-s-79" value="&lt;u&gt;User_ID&lt;/u&gt;" style="ellipse;whiteSpace=wrap;html=1;align=center;rounded=1;" parent="1" vertex="1">
          <mxGeometry x="644.75" y="349.63" width="57" height="40" as="geometry" />
        </mxCell>
        <mxCell id="1Lhtd_r-0-Z76O6dxkwj-9" value="Playback&lt;br&gt;Position" style="ellipse;whiteSpace=wrap;html=1;align=center;rounded=1;" vertex="1" parent="1">
          <mxGeometry x="851.75" y="349.63" width="85.5" height="40" as="geometry" />
        </mxCell>
        <mxCell id="1Lhtd_r-0-Z76O6dxkwj-10" value="" style="endArrow=none;html=1;rounded=1;entryX=1;entryY=0.25;entryDx=0;entryDy=0;exitX=0;exitY=0.5;exitDx=0;exitDy=0;" edge="1" parent="1" source="1Lhtd_r-0-Z76O6dxkwj-9" target="_kRaysnc5MU2M_8_n5-s-54">
          <mxGeometry relative="1" as="geometry">
            <mxPoint x="720.25" y="420.63" as="sourcePoint" />
            <mxPoint x="738.25" y="401.63" as="targetPoint" />
          </mxGeometry>
        </mxCell>
        <mxCell id="1Lhtd_r-0-Z76O6dxkwj-11" value="" style="edgeStyle=entityRelationEdgeStyle;fontSize=12;html=1;endArrow=ERmandOne;rounded=1;entryX=0;entryY=0.75;entryDx=0;entryDy=0;exitX=1;exitY=0.5;exitDx=0;exitDy=0;" edge="1" parent="1" source="1Lhtd_r-0-Z76O6dxkwj-12" target="_kRaysnc5MU2M_8_n5-s-54">
          <mxGeometry width="100" height="100" relative="1" as="geometry">
            <mxPoint x="695" y="370.5" as="sourcePoint" />
            <mxPoint x="745.5" y="542.5" as="targetPoint" />
            <Array as="points">
              <mxPoint x="624.75" y="606.13" />
            </Array>
          </mxGeometry>
        </mxCell>
        <mxCell id="1Lhtd_r-0-Z76O6dxkwj-12" value="&lt;font style=&quot;font-size: 18px;&quot;&gt;has&lt;/font&gt;" style="shape=rhombus;perimeter=rhombusPerimeter;whiteSpace=wrap;html=1;align=center;rounded=1;" vertex="1" parent="1">
          <mxGeometry x="560" y="402.63" width="90" height="56" as="geometry" />
        </mxCell>
        <mxCell id="1Lhtd_r-0-Z76O6dxkwj-13" value="" style="edgeStyle=entityRelationEdgeStyle;fontSize=12;html=1;endArrow=ERmandOne;rounded=1;entryX=1.004;entryY=0.082;entryDx=0;entryDy=0;exitX=0;exitY=0.5;exitDx=0;exitDy=0;entryPerimeter=0;" edge="1" parent="1" source="1Lhtd_r-0-Z76O6dxkwj-12" target="OrGfQXAaAdTn9BZJPWIu-74">
          <mxGeometry width="100" height="100" relative="1" as="geometry">
            <mxPoint x="564" y="510" as="sourcePoint" />
            <mxPoint x="489" y="510" as="targetPoint" />
            <Array as="points">
              <mxPoint x="591.5" y="572.5" />
            </Array>
          </mxGeometry>
        </mxCell>
        <mxCell id="1Lhtd_r-0-Z76O6dxkwj-14" value="" style="edgeStyle=entityRelationEdgeStyle;fontSize=12;html=1;endArrow=ERoneToMany;rounded=1;entryX=0;entryY=0.5;entryDx=0;entryDy=0;exitX=1;exitY=0;exitDx=0;exitDy=0;" edge="1" parent="1" source="_kRaysnc5MU2M_8_n5-s-62" target="_kRaysnc5MU2M_8_n5-s-52">
          <mxGeometry width="100" height="100" relative="1" as="geometry">
            <mxPoint x="618" y="658" as="sourcePoint" />
            <mxPoint x="678" y="754" as="targetPoint" />
            <Array as="points">
              <mxPoint x="610" y="770" />
            </Array>
          </mxGeometry>
        </mxCell>
        <mxCell id="1Lhtd_r-0-Z76O6dxkwj-16" value="" style="edgeStyle=entityRelationEdgeStyle;fontSize=12;html=1;endArrow=ERzeroToOne;endFill=1;rounded=1;entryX=0;entryY=0.25;entryDx=0;entryDy=0;" edge="1" parent="1" source="_kRaysnc5MU2M_8_n5-s-56" target="OrGfQXAaAdTn9BZJPWIu-48">
          <mxGeometry width="100" height="100" relative="1" as="geometry">
            <mxPoint x="888" y="397.5" as="sourcePoint" />
            <mxPoint x="982" y="377.5" as="targetPoint" />
          </mxGeometry>
        </mxCell>
        <mxCell id="1Lhtd_r-0-Z76O6dxkwj-18" value="" style="edgeStyle=entityRelationEdgeStyle;fontSize=12;html=1;endArrow=ERzeroToMany;endFill=1;rounded=1;exitX=0;exitY=1;exitDx=0;exitDy=0;entryX=1;entryY=0.25;entryDx=0;entryDy=0;" edge="1" parent="1" source="_kRaysnc5MU2M_8_n5-s-56" target="OrGfQXAaAdTn9BZJPWIu-77">
          <mxGeometry width="100" height="100" relative="1" as="geometry">
            <mxPoint x="959" y="535" as="sourcePoint" />
            <mxPoint x="898" y="630" as="targetPoint" />
          </mxGeometry>
        </mxCell>
        <mxCell id="1Lhtd_r-0-Z76O6dxkwj-19" value="" style="edgeStyle=entityRelationEdgeStyle;fontSize=12;html=1;endArrow=ERoneToMany;rounded=1;entryX=1.012;entryY=0.362;entryDx=0;entryDy=0;exitX=0;exitY=0;exitDx=0;exitDy=0;entryPerimeter=0;" edge="1" parent="1" source="_kRaysnc5MU2M_8_n5-s-56" target="OrGfQXAaAdTn9BZJPWIu-74">
          <mxGeometry width="100" height="100" relative="1" as="geometry">
            <mxPoint x="618" y="658" as="sourcePoint" />
            <mxPoint x="678" y="733" as="targetPoint" />
            <Array as="points">
              <mxPoint x="610" y="770" />
            </Array>
          </mxGeometry>
        </mxCell>
        <mxCell id="1Lhtd_r-0-Z76O6dxkwj-21" value="Representative&lt;br&gt;Work" style="ellipse;whiteSpace=wrap;html=1;align=center;rounded=1;" vertex="1" parent="1">
          <mxGeometry x="879.25" y="651" width="110" height="51" as="geometry" />
        </mxCell>
        <mxCell id="1Lhtd_r-0-Z76O6dxkwj-23" value="" style="endArrow=none;html=1;rounded=1;entryX=0.75;entryY=1;entryDx=0;entryDy=0;exitX=0;exitY=0;exitDx=0;exitDy=0;" edge="1" parent="1" source="1Lhtd_r-0-Z76O6dxkwj-21" target="_kRaysnc5MU2M_8_n5-s-52">
          <mxGeometry relative="1" as="geometry">
            <mxPoint x="841" y="672" as="sourcePoint" />
            <mxPoint x="847" y="650" as="targetPoint" />
          </mxGeometry>
        </mxCell>
        <mxCell id="1Lhtd_r-0-Z76O6dxkwj-27" value="&lt;span style=&quot;font-size: 18px;&quot;&gt;Year&lt;/span&gt;" style="shape=rhombus;perimeter=rhombusPerimeter;whiteSpace=wrap;html=1;align=center;rounded=1;" vertex="1" parent="1">
          <mxGeometry x="369" y="386" width="90" height="56" as="geometry" />
        </mxCell>
        <mxCell id="1Lhtd_r-0-Z76O6dxkwj-28" value="" style="endArrow=none;html=1;rounded=1;entryX=0.5;entryY=1;entryDx=0;entryDy=0;exitX=0.5;exitY=0;exitDx=0;exitDy=0;" edge="1" parent="1" source="OrGfQXAaAdTn9BZJPWIu-74" target="1Lhtd_r-0-Z76O6dxkwj-27">
          <mxGeometry relative="1" as="geometry">
            <mxPoint x="391" y="480" as="sourcePoint" />
            <mxPoint x="343" y="466" as="targetPoint" />
            <Array as="points">
              <mxPoint x="414" y="450" />
            </Array>
          </mxGeometry>
        </mxCell>
        <mxCell id="1Lhtd_r-0-Z76O6dxkwj-29" value="&lt;span style=&quot;font-size: 18px;&quot;&gt;Time&lt;/span&gt;" style="shape=rhombus;perimeter=rhombusPerimeter;whiteSpace=wrap;html=1;align=center;rounded=1;" vertex="1" parent="1">
          <mxGeometry x="761.25" y="284.5" width="90" height="56" as="geometry" />
        </mxCell>
        <mxCell id="1Lhtd_r-0-Z76O6dxkwj-34" value="" style="endArrow=none;html=1;rounded=1;entryX=0.75;entryY=0;entryDx=0;entryDy=0;exitX=0.5;exitY=1;exitDx=0;exitDy=0;" edge="1" parent="1" source="1Lhtd_r-0-Z76O6dxkwj-29" target="_kRaysnc5MU2M_8_n5-s-54">
          <mxGeometry relative="1" as="geometry">
            <mxPoint x="910" y="368" as="sourcePoint" />
            <mxPoint x="838" y="380" as="targetPoint" />
          </mxGeometry>
        </mxCell>
      </root>
    </mxGraphModel>
  </diagram>
</mxfile>
